<?xml version="1.0" encoding="UTF-8"?>
<svg version="1.1" xmlns="http://www.w3.org/2000/svg" width="188" height="268">
<path d="M0 0 C12.07191543 9.9921993 19.61023914 25.63927521 23.9375 40.5 C23.9375 41.16 23.9375 41.82 23.9375 42.5 C25.21496094 42.4690625 26.49242188 42.438125 27.80859375 42.40625 C32.98253278 42.40625 37.91122346 43.12357766 43 44 C43.86560547 44.14308594 44.73121094 44.28617188 45.62304688 44.43359375 C47.7289397 44.78263676 49.83338495 45.14039539 51.9375 45.5 C52.23011719 44.88592285 52.52273437 44.2718457 52.82421875 43.63916016 C55.25118121 38.97577307 59.36282323 35.30389268 62.9375 31.5 C63.75089844 30.63246094 64.56429687 29.76492187 65.40234375 28.87109375 C74.08159827 19.89019058 83.85811719 11.55926133 96.6875 10.0625 C101.87505723 10.76082501 105.30640385 12.54002012 108.75 16.4375 C113.61514464 23.2487025 112.8700871 32.67425712 111.58740234 40.68701172 C109.31564955 51.85379657 105.24922732 62.38868091 100.79711914 72.84765625 C100.22078735 74.23404297 100.22078735 74.23404297 99.6328125 75.6484375 C99.28234863 76.46489746 98.93188477 77.28135742 98.57080078 78.12255859 C97.4221561 82.43462564 99.16095916 86.29512497 100.4375 90.4375 C103.97484529 103.36710692 103.72374866 115.40148008 97.9375 127.5 C96.9475 127.5 95.9575 127.5 94.9375 127.5 C95.5975 128.16 96.2575 128.82 96.9375 129.5 C95.1875 132.5 95.1875 132.5 92.9375 135.5 C91.6175 135.5 90.2975 135.5 88.9375 135.5 C89.5975 136.16 90.2575 136.82 90.9375 137.5 C85.51707695 143.77929289 79.18991844 147.58202682 71.9375 151.5 C72.22471924 152.16418945 72.51193848 152.82837891 72.80786133 153.51269531 C74.13130698 156.58784648 75.44067671 159.66881083 76.75 162.75 C77.20181641 163.79414063 77.65363281 164.83828125 78.11914062 165.9140625 C82.14848341 175.44331113 85.10628601 184.87572026 85.625 195.25 C85.69074219 196.44109375 85.75648438 197.6321875 85.82421875 198.859375 C85.88029297 200.16648438 85.88029297 200.16648438 85.9375 201.5 C88.62556549 193.6386764 89.20798963 186.24645349 89.4375 178 C90.12759705 155.21584352 90.12759705 155.21584352 98.3515625 147.10546875 C102.54478529 143.37457566 105.88351181 141.6833918 111.4375 141.1875 C116.15215999 141.60845179 118.64134531 143.20384531 121.9375 146.5 C122.40466492 150.54876265 122.23836988 152.91029504 120.375 156.5625 C118.41881868 158.91994928 116.93128738 160.32346104 114.5625 162.125 C105.57126117 169.71674963 103.59462042 181.74794819 101.20483398 192.69482422 C99.15218225 201.7856674 96.06088605 209.83171664 89.625 216.75 C88.92761719 217.51828125 88.23023438 218.2865625 87.51171875 219.078125 C71.97735451 233.69315661 51.24930504 242.51100897 29.890625 241.8828125 C14.92184573 240.43326668 1.19198296 234.7043311 -9.0625 223.5 C-19.20121931 210.28954989 -22.39672183 195.85131435 -21.0625 179.5 C-19.66384412 170.31376635 -16.24535948 161.74571889 -12.0625 153.5 C-13.17367187 152.88253906 -14.28484375 152.26507813 -15.4296875 151.62890625 C-26.10767139 145.59049615 -35.66694567 139.55463004 -43.0625 129.5 C-43.0625 128.84 -43.0625 128.18 -43.0625 127.5 C-43.51625 127.04625 -43.97 126.5925 -44.4375 126.125 C-46.66995901 123.89254099 -47.78088087 121.66739555 -48.51953125 118.60546875 C-49.00339356 116.51968936 -49.00339356 116.51968936 -49.81640625 114.703125 C-54.05077096 104.47519093 -53.2342307 92.37779203 -49.33984375 82.19140625 C-47.00258596 77.26672547 -44.07536751 72.81189522 -40.49633789 68.70117188 C-38.76098141 66.03712045 -38.68115255 64.50184558 -38.65625 61.34375 C-38.63651123 60.33078857 -38.61677246 59.31782715 -38.59643555 58.27416992 C-38.58523682 57.19369385 -38.57403809 56.11321777 -38.5625 55 C-38.05962631 35.4247563 -37.46229268 13.58184927 -22.625 -0.875 C-14.86595103 -5.79537252 -7.39853915 -5.10644271 0 0 Z M-38.0625 124.5 C-39.0525 125.16 -40.0425 125.82 -41.0625 126.5 C-39.0825 126.17 -37.1025 125.84 -35.0625 125.5 C-36.0525 125.17 -37.0425 124.84 -38.0625 124.5 Z " fill="#070707" transform="translate(56.0625,16.5)"/>
<path d="M0 0 C12.07191543 9.9921993 19.61023914 25.63927521 23.9375 40.5 C23.9375 41.16 23.9375 41.82 23.9375 42.5 C25.21496094 42.4690625 26.49242188 42.438125 27.80859375 42.40625 C32.98253278 42.40625 37.91122346 43.12357766 43 44 C43.86560547 44.14308594 44.73121094 44.28617188 45.62304688 44.43359375 C47.7289397 44.78263676 49.83338495 45.14039539 51.9375 45.5 C52.23011719 44.88592285 52.52273437 44.2718457 52.82421875 43.63916016 C55.25118121 38.97577307 59.36282323 35.30389268 62.9375 31.5 C63.75089844 30.63246094 64.56429687 29.76492187 65.40234375 28.87109375 C74.08159827 19.89019058 83.85811719 11.55926133 96.6875 10.0625 C101.87505723 10.76082501 105.30640385 12.54002012 108.75 16.4375 C113.61514464 23.2487025 112.8700871 32.67425712 111.58740234 40.68701172 C109.31564955 51.85379657 105.24922732 62.38868091 100.79711914 72.84765625 C100.22078735 74.23404297 100.22078735 74.23404297 99.6328125 75.6484375 C99.28234863 76.46489746 98.93188477 77.28135742 98.57080078 78.12255859 C97.4221561 82.43462564 99.16095916 86.29512497 100.4375 90.4375 C103.97484529 103.36710692 103.72374866 115.40148008 97.9375 127.5 C95.2975 127.17 92.6575 126.84 89.9375 126.5 C89.9375 126.83 89.9375 127.16 89.9375 127.5 C89.174375 127.45875 88.41125 127.4175 87.625 127.375 C84.71031584 127.27919176 84.71031584 127.27919176 81.9375 129.5 C81.6075 128.51 81.2775 127.52 80.9375 126.5 C81.5975 126.5 82.2575 126.5 82.9375 126.5 C83.2675 125.51 83.5975 124.52 83.9375 123.5 C84.5975 123.5 85.2575 123.5 85.9375 123.5 C85.9375 121.85 85.9375 120.2 85.9375 118.5 C80.75365485 119.74412284 77.38799235 121.46987755 72.9375 124.5 C65.03920076 127.72800056 53.93750517 128.1905562 45.9375 124.9375 C37.73967996 120.44747261 31.84344943 114.51520124 28.9375 105.5 C28.02715981 99.33843432 29.13743188 93.67100482 30.79296875 87.7265625 C31.16567039 85.36360564 31.16567039 85.36360564 29.48828125 83.2109375 C28.97652344 82.64632812 28.46476562 82.08171875 27.9375 81.5 C27.4734375 82.4590625 27.4734375 82.4590625 27 83.4375 C25.9375 85.5 25.9375 85.5 24.9375 86.5 C24.99721128 88.64662053 25.0859047 90.79245372 25.1875 92.9375 C25.22792843 100.88572987 23.51763423 106.20383892 18.43359375 112.3046875 C12.53452625 118.01896493 4.53659554 120.65289591 -3.5625 121 C-13.57580085 120.52995885 -20.79482543 116.77592983 -27.9609375 109.8828125 C-34.23413895 102.7700748 -35.41423849 95.3067275 -35.34765625 86.08984375 C-34.77247677 78.84888565 -31.68962284 73.95339478 -27.0625 68.5 C-27.0625 67.84 -27.0625 67.18 -27.0625 66.5 C-27.475 66.995 -27.8875 67.49 -28.3125 68 C-30.0625 69.5 -30.0625 69.5 -34.0625 69.5 C-34.7225 69.17 -35.3825 68.84 -36.0625 68.5 C-36.0625 67.51 -36.0625 66.52 -36.0625 65.5 C-36.5575 66.49 -36.5575 66.49 -37.0625 67.5 C-37.7225 67.17 -38.3825 66.84 -39.0625 66.5 C-37.88930521 13.99791277 -37.88930521 13.99791277 -22.625 -0.875 C-14.86595103 -5.79537252 -7.39853915 -5.10644271 0 0 Z " fill="#0B0B0B" transform="translate(56.0625,16.5)"/>
<path d="M0 0 C8.84892367 4.56588299 16.44111984 11.68088004 19.56640625 21.32421875 C20.61023871 30.3231533 19.9625684 37.88218342 14.56640625 45.32421875 C9.30425142 51.63880455 1.8222106 54.59672041 -6.19921875 55.70703125 C-15.81092251 56.11896141 -23.56292796 53.27865862 -30.87109375 47.07421875 C-37.50841184 40.68975087 -40.55494011 33.93495775 -40.74609375 24.69921875 C-40.67905844 16.57118708 -38.67177486 11.74731926 -34.30859375 5.07421875 C-24.52054318 -4.2882644 -12.27905845 -5.09393254 0 0 Z " fill="#ECBC4F" transform="translate(61.43359375,81.67578125)"/>
<path d="M0 0 C6.14723594 4.93129916 9.41978986 9.32977532 10.29296875 17.23828125 C10.73896712 25.67207025 9.72948341 32.41498683 4.8828125 39.5234375 C4.2846875 40.4515625 3.6865625 41.3796875 3.0703125 42.3359375 C-2.9844438 48.3906938 -10.27442627 51.71093909 -18.87695312 51.90405273 C-29.42394578 51.87520154 -36.51481061 49.88796702 -44.3203125 42.56640625 C-49.40823194 36.78166306 -51.91192226 30.62179245 -51.4765625 22.90625 C-50.17344865 14.26603861 -45.76949385 7.40654634 -39.046875 1.91015625 C-27.97488335 -6.04643694 -11.51680525 -8.03201547 0 0 Z " fill="#ECBD4F" transform="translate(136.1171875,91.4765625)"/>
<path d="M0 0 C5.21195639 2.8978068 7.74258405 7.0429262 10.125 12.375 C12.00578569 20.75304535 10.50984565 27.94192392 6.125 35.25 C1.81115776 39.33066157 -2.6922515 41.64720127 -8.6875 41.875 C-15.14310856 41.51944153 -20.13216698 39.97369377 -24.5625 35.125 C-28.73606931 29.70389638 -29.97853151 24.23542708 -29.1875 17.4375 C-27.54142295 9.7472338 -24.47180838 5.80220203 -18.0625 1.1875 C-12.19949368 -2.38128645 -6.23597271 -2.76366972 0 0 Z " fill="#050201" transform="translate(66.1875,91.5625)"/>
<path d="M0 0 C4.85134572 3.98888426 9.34442066 8.55153691 10.1484375 15.01171875 C10.25020155 22.79666867 9.56578538 29.26918802 4.09375 35.1640625 C-1.41194736 40.08652921 -5.87261161 40.66913027 -13.17578125 40.58984375 C-18.80127598 40.07180208 -22.26390904 37.55380694 -26 33.375 C-29.96448374 27.82472276 -31.20528041 23.07270463 -30.1875 16.3125 C-27.75969773 8.91617214 -23.59384304 3.67642476 -17.1875 -0.6875 C-11.21869145 -3.67190428 -5.77470723 -3.05719795 0 0 Z " fill="#050201" transform="translate(119.1875,97.6875)"/>
<path d="M0 0 C-0.99 0.33 -1.98 0.66 -3 1 C-2.67 1.66 -2.34 2.32 -2 3 C-5.75 4.125 -5.75 4.125 -8 3 C-8.33 3.66 -8.66 4.32 -9 5 C-7.02 5 -5.04 5 -3 5 C-3 5.66 -3 6.32 -3 7 C-1.68 7 -0.36 7 1 7 C0.67 7.66 0.34 8.32 0 9 C-1.155 8.773125 -2.31 8.54625 -3.5 8.3125 C-8.29972591 7.75380175 -11.87273262 8.44934876 -16 11 C-21.219571 15.64541819 -25.28868706 21.09194073 -26.3125 28.15625 C-26.62661648 33.88887567 -25.33435663 38.31966455 -22 43 C-18.57853975 46.60012658 -15.35763858 48.82309205 -10.29296875 49.203125 C-1.47171947 49.33627593 3.22860667 47.77560019 10 42 C9.67 43.98 9.34 45.96 9 48 C8.13375 48.1546875 8.13375 48.1546875 7.25 48.3125 C4.67950842 49.09792798 3.06342716 50.30504197 1 52 C5.51617599 52.07654536 9.59085217 52.10228696 14 51 C14 50.34 14 49.68 14 49 C15.32 49.33 16.64 49.66 18 50 C16.730447 50.64834654 15.45930294 51.29357815 14.1875 51.9375 C13.12595703 52.47697266 13.12595703 52.47697266 12.04296875 53.02734375 C5.14314239 56.31234712 -4.36789472 56.08299926 -11.7734375 54.3515625 C-20.18000617 50.90044483 -26.44390579 44.87826379 -30.15625 36.61328125 C-32.48487526 29.40101133 -31.34815798 22.66745254 -28 16 C-23.21095248 7.44812943 -15.58341821 1.94510083 -6.25 -0.8125 C-3.90439651 -1.00796696 -2.22320182 -0.74106727 0 0 Z " fill="#D2AD5A" transform="translate(116,88)"/>
<path d="M0 0 C6.01135368 3.00567684 11.14404618 8.4327199 13.5234375 14.796875 C15.34230327 23.20540202 14.93209039 31.41169878 10.53515625 38.8828125 C5.53472939 45.7790755 -0.76773938 49.01980758 -9 51 C-16.86478813 52.08862887 -23.92030485 50.57903408 -31 47 C-31.33 46.34 -31.66 45.68 -32 45 C-31.10796875 45.22816406 -30.2159375 45.45632812 -29.296875 45.69140625 C-27.54117188 46.12259766 -27.54117188 46.12259766 -25.75 46.5625 C-24.58984375 46.85253906 -23.4296875 47.14257812 -22.234375 47.44140625 C-19.15534376 47.97317131 -17.86828149 47.93219148 -15 47 C-13.41787028 46.87891864 -11.83429758 46.77579684 -10.25 46.6875 C-3.68811077 46.04873202 1.0718536 44.28333127 5.375 39.1875 C8.32262227 33.40562555 10.01508474 27.51346042 9 21 C8.13637441 18.64132446 7.12073908 16.4288436 6.01171875 14.17578125 C5.07149545 12.15375662 4.46916774 10.28348015 3.9375 8.125 C3.01300316 5.04334386 2.35362383 4.03267512 0 2 C0 1.34 0 0.68 0 0 Z " fill="#DDB75F" transform="translate(67,86)"/>
<path d="M0 0 C1.57499749 3.14999498 0.70833498 5.63540882 0 9 C-0.5053125 9.40605469 -1.010625 9.81210938 -1.53125 10.23046875 C-3.89814776 13.08207695 -3.35175813 16.34526481 -3.25 19.875 C-3.24484375 20.58269531 -3.2396875 21.29039063 -3.234375 22.01953125 C-3.17821165 25.78949637 -2.89125023 29.33437407 -2 33 C-1.34 33 -0.68 33 0 33 C0.33 33.99 0.66 34.98 1 36 C2.32 36 3.64 36 5 36 C5.99 34.02 6.98 32.04 8 30 C8.99 30 9.98 30 11 30 C11.556875 31.8253125 11.556875 31.8253125 12.125 33.6875 C13.87496334 38.32942153 15.88103014 40.25402009 20 43 C23.21265916 44.32350658 23.21265916 44.32350658 26 45 C26 45.33 26 45.66 26 46 C28.97 46.495 28.97 46.495 32 47 C32 47.33 32 47.66 32 48 C22.56185343 48.70638935 11.76301595 47.75023278 3.62890625 42.45703125 C-1.6658411 37.4811074 -5.66674972 30.25030686 -6.23828125 22.9609375 C-6.4308328 13.65765733 -5.12416463 7.68624694 0 0 Z " fill="#E5B953" transform="translate(27,87)"/>
<path d="M0 0 C-0.99 0.33 -1.98 0.66 -3 1 C-2.67 1.66 -2.34 2.32 -2 3 C-5.75 4.125 -5.75 4.125 -8 3 C-8.33 3.66 -8.66 4.32 -9 5 C-7.02 5 -5.04 5 -3 5 C-3 5.66 -3 6.32 -3 7 C-1.68 7 -0.36 7 1 7 C0.67 7.66 0.34 8.32 0 9 C-1.155 8.773125 -2.31 8.54625 -3.5 8.3125 C-8.29972591 7.75380175 -11.87273262 8.44934876 -16 11 C-19.86838146 14.4428595 -22.82938445 18.1110827 -24.75 22.9375 C-25.1625 23.948125 -25.575 24.95875 -26 26 C-26.99 26.33 -27.98 26.66 -29 27 C-28.72407458 19.24649569 -28.13112437 14.16257963 -22.4609375 8.44921875 C-16.57489235 3.03351968 -8.25754709 -2.7525157 0 0 Z " fill="#E0B756" transform="translate(116,88)"/>
<path d="M0 0 C0.625 1.875 0.625 1.875 1 4 C-1.23637531 6.23637531 -3.09619927 6.83847971 -6 8 C-6.66 8.66 -7.32 9.32 -8 10 C-3.48382401 10.07654536 0.59085217 10.10228696 5 9 C5 8.34 5 7.68 5 7 C6.32 7.33 7.64 7.66 9 8 C7.730447 8.64834654 6.45930294 9.29357815 5.1875 9.9375 C4.47980469 10.29714844 3.77210938 10.65679687 3.04296875 11.02734375 C-1.40332544 13.14422186 -5.36983931 13.11719833 -10.1875 13.0625 C-10.93708984 13.05798828 -11.68667969 13.05347656 -12.45898438 13.04882812 C-14.30602383 13.03706354 -16.15302213 13.01912865 -18 13 C-18.66 11.68 -19.32 10.36 -20 9 C-17.36 9 -14.72 9 -12 9 C-12.33 9.66 -12.66 10.32 -13 11 C-12.34 11 -11.68 11 -11 11 C-10.95875 10.401875 -10.9175 9.80375 -10.875 9.1875 C-9.55994156 5.8998539 -7.12713092 5.47159102 -4 4 C-1.68581709 1.93832739 -1.68581709 1.93832739 0 0 Z " fill="#DEB75D" transform="translate(125,130)"/>
<path d="M0 0 C0.66 0.33 1.32 0.66 2 1 C1 4 1 4 -1.1171875 5.16796875 C-11.57225386 9.03308535 -19.46193283 9.05563475 -29.8828125 5.0703125 C-32 4 -32 4 -33 2 C-32.10796875 2.22816406 -31.2159375 2.45632812 -30.296875 2.69140625 C-29.12640625 2.97886719 -27.9559375 3.26632813 -26.75 3.5625 C-25.58984375 3.85253906 -24.4296875 4.14257812 -23.234375 4.44140625 C-20.15261604 4.9736424 -18.87009868 4.93486617 -16 4 C-14.37663175 3.85534342 -12.75132411 3.73139503 -11.125 3.625 C-6.81054873 3.24319015 -3.8185163 2.10018397 0 0 Z " fill="#CFAD5B" transform="translate(68,129)"/>
<path d="M0 0 C4.62 0 9.24 0 14 0 C12.68 0.33 11.36 0.66 10 1 C10.185625 1.598125 10.37125 2.19625 10.5625 2.8125 C11 5 11 5 10 8 C7.69 8.33 5.38 8.66 3 9 C0 3.375 0 3.375 0 0 Z " fill="#383838" transform="translate(8,134)"/>
<path d="M0 0 C1.57499749 3.14999498 0.70833498 5.63540882 0 9 C-0.75796875 9.60134766 -0.75796875 9.60134766 -1.53125 10.21484375 C-3.92916091 13.1293259 -3.35114604 16.52799405 -3.25 20.125 C-3.24484375 20.86621094 -3.2396875 21.60742188 -3.234375 22.37109375 C-3.49966711 25.98426143 -3.49966711 25.98426143 -2 29 C-1.95936168 30.66617115 -1.957279 32.33388095 -2 34 C-6.06137795 29.93862205 -6.31309855 24.70291943 -6.375 19.1875 C-6.27666192 11.43518101 -4.22945394 6.34418092 0 0 Z " fill="#D5B25C" transform="translate(27,87)"/>
<path d="M0 0 C8.29649065 0.58220987 13.36021288 2.95414618 18.9375 9.125 C22 12.69230769 22 12.69230769 22 15 C20.0625 14.1875 20.0625 14.1875 18 13 C17.67 12.01 17.34 11.02 17 10 C16.67 11.65 16.34 13.3 16 15 C14 13.75 14 13.75 12 12 C12 10.68 12 9.36 12 8 C12.66 8 13.32 8 14 8 C12.7511573 6.4166747 12.7511573 6.4166747 11 5 C9.68 5 8.36 5 7 5 C6.67 4.01 6.34 3.02 6 2 C3.03 1.505 3.03 1.505 0 1 C0 0.67 0 0.34 0 0 Z " fill="#E2B95B" transform="translate(122,87)"/>
<path d="M0 0 C0.66 0.66 1.32 1.32 2 2 C1.75 3.8125 1.75 3.8125 1 6 C0.566875 7.3303125 0.566875 7.3303125 0.125 8.6875 C-0.24625 9.450625 -0.6175 10.21375 -1 11 C-1.99 11.33 -2.98 11.66 -4 12 C-3.67 13.32 -3.34 14.64 -3 16 C-4.1446875 16.2165625 -4.1446875 16.2165625 -5.3125 16.4375 C-8.08172908 16.9632594 -8.08172908 16.9632594 -11 18 C-11.66 17.34 -12.32 16.68 -13 16 C-12.48050781 15.68289062 -11.96101563 15.36578125 -11.42578125 15.0390625 C-5.39491567 11.00362194 -2.73433939 6.65180641 0 0 Z " fill="#0C0702" transform="translate(80,117)"/>
<path d="M0 0 C4.82675589 2.41337795 7.69984002 5.86062408 11 10 C10.67 10.66 10.34 11.32 10 12 C9.34 11.67 8.68 11.34 8 11 C8.33 13.31 8.66 15.62 9 18 C5 12 5 12 4.0625 8.5 C3.05142447 5.16939825 2.51140501 4.16894069 0 2 C0 1.34 0 0.68 0 0 Z " fill="#D8B259" transform="translate(67,86)"/>
<path d="M0 0 C1.4375 1.75 1.4375 1.75 2 4 C1.125 6.75 1.125 6.75 0 9 C-3.73884332 6.34345343 -5.64978174 4.41889613 -7 0 C-4.25509788 -1.37245106 -2.87939419 -0.93580311 0 0 Z " fill="#2E2E2E" transform="translate(20,144)"/>
<path d="M0 0 C0.33 0 0.66 0 1 0 C2.09016759 7.64430767 2.72747588 14.94442066 -1 22 C-1.99 22.33 -2.98 22.66 -4 23 C-5.20882096 25.00016466 -5.20882096 25.00016466 -6 27 C-6.66 26.67 -7.32 26.34 -8 26 C-7.57847656 25.31292969 -7.15695313 24.62585938 -6.72265625 23.91796875 C-6.17480469 23.01691406 -5.62695312 22.11585938 -5.0625 21.1875 C-4.51722656 20.29417969 -3.97195312 19.40085937 -3.41015625 18.48046875 C-1.09502718 14.40815031 -0.75749336 10.92954708 -0.4375 6.3125 C-0.35371094 5.13300781 -0.26992187 3.95351562 -0.18359375 2.73828125 C-0.12300781 1.83464844 -0.06242188 0.93101563 0 0 Z " fill="#2F1E0C" transform="translate(146,108)"/>
<path d="M0 0 C0.56847656 0.39832031 1.13695313 0.79664063 1.72265625 1.20703125 C6.35725893 4.38703409 10.7499834 6.98935534 16 9 C16 9.33 16 9.66 16 10 C9.89357521 10.78287497 5.99540421 8.10825151 1 5 C0.67 5.66 0.34 6.32 0 7 C-0.66 5.68 -1.32 4.36 -2 3 C-1.34 2.01 -0.68 1.02 0 0 Z " fill="#150D02" transform="translate(91,133)"/>
<path d="M0 0 C0.33 0 0.66 0 1 0 C1.0825 0.763125 1.165 1.52625 1.25 2.3125 C2.14615794 5.52373261 3.21611025 6.29374499 6 8 C1.99799622 9.60080151 -1.04556236 8.29279692 -5 7 C-4.34 5.35 -3.68 3.7 -3 2 C-2.01 2 -1.02 2 0 2 C0 1.34 0 0.68 0 0 Z " fill="#F0BE4F" transform="translate(39,124)"/>
<path d="M0 0 C2.31 0.33 4.62 0.66 7 1 C6.67 1.99 6.34 2.98 6 4 C9.3 4 12.6 4 16 4 C16 4.33 16 4.66 16 5 C10.39 5.66 4.78 6.32 -1 7 C-1 6.34 -1 5.68 -1 5 C-0.34 4.67 0.32 4.34 1 4 C0.67 2.68 0.34 1.36 0 0 Z " fill="#1F1705" transform="translate(107,82)"/>
<path d="M0 0 C0.77601562 -0.00515625 1.55203125 -0.0103125 2.3515625 -0.015625 C4.375 0.25 4.375 0.25 6.375 2.25 C5.12783203 2.44916016 5.12783203 2.44916016 3.85546875 2.65234375 C2.76878906 2.82894531 1.68210937 3.00554687 0.5625 3.1875 C-0.51644531 3.36152344 -1.59539063 3.53554687 -2.70703125 3.71484375 C-5.67433356 4.18871921 -5.67433356 4.18871921 -8.625 5.25 C-8.625 4.26 -8.625 3.27 -8.625 2.25 C-5.63092177 0.52737965 -3.44750407 -0.02306023 0 0 Z " fill="#100600" transform="translate(42.625,76.75)"/>
<path d="M0 0 C0.66 0 1.32 0 2 0 C1.91621094 0.62648438 1.83242187 1.25296875 1.74609375 1.8984375 C1.59333984 3.12433594 1.59333984 3.12433594 1.4375 4.375 C1.33308594 5.18710938 1.22867188 5.99921875 1.12109375 6.8359375 C0.81762672 9.04899186 0.81762672 9.04899186 2 11 C1.01 11.495 1.01 11.495 0 12 C-0.65555119 14.52733235 -0.65555119 14.52733235 -1 17 C-1.33 17 -1.66 17 -2 17 C-2.22084624 10.90218999 -2.01167675 5.78357065 0 0 Z " fill="#C6A658" transform="translate(87,105)"/>
<path d="M0 0 C1.67542976 0.28604898 3.34385343 0.61781233 5 1 C5 1.99 5 2.98 5 4 C4.34 4 3.68 4 3 4 C1.96986723 5.64821244 0.96885372 7.31503702 0 9 C-0.33 9 -0.66 9 -1 9 C-1.09765625 2.84765625 -1.09765625 2.84765625 -1 1 C-0.67 0.67 -0.34 0.34 0 0 Z " fill="#150B00" transform="translate(82,104)"/>
<path d="M0 0 C2.81340521 2.81340521 2.669115 5.09555696 3 9 C2.5625 11.9375 2.5625 11.9375 2 14 C1.34 14 0.68 14 0 14 C0.03255208 12.01432292 0.06510417 10.02864583 0.09765625 8.04296875 C0.08263217 5.79694539 0.08263217 5.79694539 -1 3 C-0.67 2.01 -0.34 1.02 0 0 Z " fill="#D4AF54" transform="translate(78,98)"/>
<path d="M0 0 C2.46934085 3.70401128 2.44928433 6.70587865 2 11 C1 13.5 1 13.5 0 15 C-0.66 13.02 -1.32 11.04 -2 9 C-1.67 8.67 -1.34 8.34 -1 8 C-0.76924918 6.65252916 -0.58846937 5.29622435 -0.4375 3.9375 C-0.293125 2.638125 -0.14875 1.33875 0 0 Z " fill="#302009" transform="translate(75,104)"/>
<path d="M0 0 C1.32 0.66 2.64 1.32 4 2 C3.01 3.485 3.01 3.485 2 5 C1.443125 4.773125 0.88625 4.54625 0.3125 4.3125 C-2.90552211 3.87763215 -4.32389207 5.30982657 -7 7 C-7.66 6.67 -8.32 6.34 -9 6 C-6.03 4.02 -3.06 2.04 0 0 Z " fill="#D8B156" transform="translate(37,80)"/>
<path d="M0 0 C0.33 0 0.66 0 1 0 C1.06058594 0.80824219 1.12117188 1.61648437 1.18359375 2.44921875 C1.26738281 3.51785156 1.35117187 4.58648437 1.4375 5.6875 C1.55931641 7.27111328 1.55931641 7.27111328 1.68359375 8.88671875 C1.96451681 11.65086297 2.40156852 14.28945741 3 17 C1.35 16.67 -0.3 16.34 -2 16 C-1.67 15.34 -1.34 14.68 -1 14 C-0.76970044 11.62876754 -0.58880058 9.25258057 -0.4375 6.875 C-0.35371094 5.59367187 -0.26992188 4.31234375 -0.18359375 2.9921875 C-0.09271484 1.51105469 -0.09271484 1.51105469 0 0 Z " fill="#1D1202" transform="translate(20,101)"/>
<path d="M0 0 C0.66 0 1.32 0 2 0 C2.1953125 6.0546875 2.1953125 6.0546875 2 8 C1.34 8.66 0.68 9.32 0 10 C-1 9 -1 9 -1.1328125 7.1875 C-1.13023438 6.465625 -1.12765625 5.74375 -1.125 5 C-1.12757812 4.278125 -1.13015625 3.55625 -1.1328125 2.8125 C-1 1 -1 1 0 0 Z " fill="#E6BB61" transform="translate(87,116)"/>
<path d="M0 0 C0.33 0.99 0.66 1.98 1 3 C3.01508358 3.73323796 3.01508358 3.73323796 5 4 C3.35 5.32 1.7 6.64 0 8 C0 7.01 0 6.02 0 5 C-0.99 4.67 -1.98 4.34 -3 4 C-2.01 2.68 -1.02 1.36 0 0 Z " fill="#D4B158" transform="translate(94,96)"/>
<path d="M0 0 C0.33 1.98 0.66 3.96 1 6 C0.01 6 -0.98 6 -2 6 C-4.1875 3.5 -4.1875 3.5 -6 1 C-3.92446352 0.4465236 -2.15634036 0 0 0 Z " fill="#DFB554" transform="translate(126,97)"/>
<path d="M0 0 C2.97 0.495 2.97 0.495 6 1 C6 1.99 6 2.98 6 4 C5.236875 3.95875 4.47375 3.9175 3.6875 3.875 C0.77281584 3.77919176 0.77281584 3.77919176 -2 6 C-2.33 5.01 -2.66 4.02 -3 3 C-2.34 3 -1.68 3 -1 3 C-0.67 2.01 -0.34 1.02 0 0 Z " fill="#434143" transform="translate(140,140)"/>
<path d="M0 0 C0.33 1.65 0.66 3.3 1 5 C-2.3 4.01 -5.6 3.02 -9 2 C-5.5647952 -0.29013653 -4.014669 -0.17842973 0 0 Z " fill="#1E1106" transform="translate(135,86)"/>
<path d="M0 0 C0.33 0.99 0.66 1.98 1 3 C-0.66666667 4.66666667 -2.33333333 6.33333333 -4 8 C-4 7.34 -4 6.68 -4 6 C-5.65 6 -7.3 6 -9 6 C-6 4 -3 2 0 0 Z " fill="#1C0F03" transform="translate(135,136)"/>
<path d="M0 0 C0.99 0.33 1.98 0.66 3 1 C3 1.66 3 2.32 3 3 C3.66 3 4.32 3 5 3 C6.4783226 5.95664519 6.06032783 8.74229737 6 12 C4.28982274 9.4347341 3.09582189 7.12039035 1.875 4.3125 C1.52179688 3.50425781 1.16859375 2.69601563 0.8046875 1.86328125 C0.53914062 1.24839844 0.27359375 0.63351563 0 0 Z " fill="#180A00" transform="translate(141,96)"/>
<path d="M0 0 C0.99 0.33 1.98 0.66 3 1 C3 2.65 3 4.3 3 6 C3.33 6 3.66 6 4 6 C4 7.65 4 9.3 4 11 C3.01 10.67 2.02 10.34 1 10 C0.67 6.7 0.34 3.4 0 0 Z " fill="#EDBB53" transform="translate(75,97)"/>
<path d="M0 0 C0.66 0 1.32 0 2 0 C2 0.99 2 1.98 2 3 C1.34 3 0.68 3 0 3 C0.33 4.98 0.66 6.96 1 9 C0.01 9.33 -0.98 9.66 -2 10 C-1.125 2.25 -1.125 2.25 0 0 Z " fill="#EBBC52" transform="translate(89,105)"/>
<path d="M0 0 C2.31 0.33 4.62 0.66 7 1 C6.01 2.98 5.02 4.96 4 7 C2.9375 5.125 2.9375 5.125 2 3 C2.33 2.34 2.66 1.68 3 1 C2.01 0.67 1.02 0.34 0 0 Z " fill="#525252" transform="translate(146,144)"/>
<path d="M0 0 C0.99 0.33 1.98 0.66 3 1 C2.67 1.66 2.34 2.32 2 3 C2.66 3 3.32 3 4 3 C4.33 4.98 4.66 6.96 5 9 C2.87961365 6.38485683 0.86908256 3.80362384 -1 1 C-0.67 0.67 -0.34 0.34 0 0 Z " fill="#0F0500" transform="translate(74,89)"/>
<path d="M0 0 C0.66 0.66 1.32 1.32 2 2 C1.875 3.9375 1.875 3.9375 1 6 C-1.0625 7.75 -1.0625 7.75 -3 9 C-2.01 6.03 -1.02 3.06 0 0 Z " fill="#201306" transform="translate(80,117)"/>
<path d="M0 0 C1.98 0 3.96 0 6 0 C1.375 4 1.375 4 -2 4 C-2 3.34 -2 2.68 -2 2 C-1.34 2 -0.68 2 0 2 C0 1.34 0 0.68 0 0 Z " fill="#D4AE57" transform="translate(45,91)"/>
<path d="M0 0 C-1.75 1.5625 -1.75 1.5625 -4 3 C-6.25 2.6875 -6.25 2.6875 -8 2 C-6.14210462 -1.71579076 -3.44525918 -1.06921837 0 0 Z " fill="#190E04" transform="translate(65,136)"/>
<path d="M0 0 C0.66 0 1.32 0 2 0 C2.33 0.99 2.66 1.98 3 3 C5.00016466 4.20882096 5.00016466 4.20882096 7 5 C6.01 5.66 5.02 6.32 4 7 C0 2.25 0 2.25 0 0 Z " fill="#E0B85F" transform="translate(25,120)"/>
</svg>
